<svg
    xmlns="http://www.w3.org/2000/svg"
    viewBox="0 0 50 50"
    id="vector">
    <path
        id="path"
        d="M 1.719 2.781 C 1.254 2.887 0.926 3.305 0.938 3.781 L 0.938 39.469 C 0.938 43.715 3.144 46.109 5.313 47.188 C 7.481 48.266 9.625 48.219 9.625 48.219 L 40.375 48.219 L 40.375 48.125 C 40.855 48.18 41.375 48.219 41.375 48.219 C 41.375 48.219 43.297 48.23 45.219 47.125 C 47.094 46.047 48.941 43.766 49.031 39.813 C 49.043 39.793 49.055 39.77 49.063 39.75 C 49.063 39.727 49.063 39.711 49.063 39.688 C 49.066 39.637 49.066 39.582 49.063 39.531 L 49.063 14.438 C 49.063 14.426 49.063 14.418 49.063 14.406 C 49.063 14.406 49.078 13.234 48.469 12.031 C 47.859 10.828 46.441 9.531 44.219 9.531 L 44.219 9.5 L 34.75 9.5 L 34.75 11.5 L 40.313 11.5 C 40.191 11.672 40.09 11.828 40 12 C 39.391 13.191 39.375 14.375 39.375 14.375 L 39.375 38.625 C 39.371 38.984 39.559 39.32 39.871 39.504 C 40.184 39.684 40.566 39.684 40.879 39.504 C 41.191 39.32 41.379 38.984 41.375 38.625 L 41.375 14.375 C 41.375 14.348 41.414 13.625 41.781 12.906 C 42.156 12.176 42.684 11.531 44.219 11.531 C 45.75 11.531 46.277 12.191 46.656 12.938 C 47.027 13.672 47.094 14.41 47.094 14.438 L 47.063 14.438 L 47.063 39.531 C 47.063 43.09 45.641 44.59 44.219 45.406 C 42.797 46.223 41.375 46.219 41.375 46.219 C 41.375 46.219 39.684 46.195 38 45.344 C 36.316 44.492 34.688 42.996 34.688 39.469 L 34.688 3.781 C 34.688 3.231 34.238 2.781 33.688 2.781 L 1.938 2.781 C 1.863 2.773 1.793 2.773 1.719 2.781 Z M 2.938 4.781 L 32.688 4.781 L 32.688 39.469 C 32.688 42.758 34.082 44.91 35.719 46.219 L 9.625 46.219 C 9.613 46.219 9.605 46.219 9.594 46.219 C 9.594 46.219 9.164 46.223 8.531 46.125 C 8.215 46.074 7.863 45.992 7.469 45.875 C 7.074 45.758 6.637 45.613 6.219 45.406 C 6.008 45.301 5.797 45.191 5.594 45.063 C 4.164 44.164 2.938 42.613 2.938 39.469 Z M 6.938 11 C 6.387 11.078 6 11.59 6.078 12.141 C 6.156 12.691 6.668 13.078 7.219 13 L 26.938 13 C 27.297 13.004 27.633 12.816 27.816 12.504 C 27.996 12.191 27.996 11.809 27.816 11.496 C 27.633 11.184 27.297 10.996 26.938 11 L 7.219 11 C 7.188 11 7.156 11 7.125 11 C 7.094 11 7.063 11 7.031 11 C 7 11 6.969 11 6.938 11 Z M 6.938 15 C 6.387 15.078 6 15.59 6.078 16.141 C 6.156 16.691 6.668 17.078 7.219 17 L 26.938 17 C 27.297 17.004 27.633 16.816 27.816 16.504 C 27.996 16.191 27.996 15.809 27.816 15.496 C 27.633 15.184 27.297 14.996 26.938 15 L 7.219 15 C 7.188 15 7.156 15 7.125 15 C 7.094 15 7.063 15 7.031 15 C 7 15 6.969 15 6.938 15 Z M 7.406 23 C 6.856 23.078 6.469 23.59 6.547 24.141 C 6.625 24.691 7.137 25.078 7.688 25 L 14.469 25 C 14.828 25.004 15.164 24.816 15.348 24.504 C 15.527 24.191 15.527 23.809 15.348 23.496 C 15.164 23.184 14.828 22.996 14.469 23 L 7.688 23 C 7.656 23 7.625 23 7.594 23 C 7.563 23 7.531 23 7.5 23 C 7.469 23 7.438 23 7.406 23 Z M 18.938 23 C 18.387 23.078 18 23.59 18.078 24.141 C 18.156 24.691 18.668 25.078 19.219 25 L 26.938 25 C 27.297 25.004 27.633 24.816 27.816 24.504 C 27.996 24.191 27.996 23.809 27.816 23.496 C 27.633 23.184 27.297 22.996 26.938 23 L 19.219 23 C 19.188 23 19.156 23 19.125 23 C 19.094 23 19.063 23 19.031 23 C 19 23 18.969 23 18.938 23 Z M 7.406 27 C 6.856 27.078 6.469 27.59 6.547 28.141 C 6.625 28.691 7.137 29.078 7.688 29 L 14.469 29 C 14.828 29.004 15.164 28.816 15.348 28.504 C 15.527 28.191 15.527 27.809 15.348 27.496 C 15.164 27.184 14.828 26.996 14.469 27 L 7.688 27 C 7.656 27 7.625 27 7.594 27 C 7.563 27 7.531 27 7.5 27 C 7.469 27 7.438 27 7.406 27 Z M 18.938 27 C 18.387 27.078 18 27.59 18.078 28.141 C 18.156 28.691 18.668 29.078 19.219 29 L 26.938 29 C 27.297 29.004 27.633 28.816 27.816 28.504 C 27.996 28.191 27.996 27.809 27.816 27.496 C 27.633 27.184 27.297 26.996 26.938 27 L 19.219 27 C 19.188 27 19.156 27 19.125 27 C 19.094 27 19.063 27 19.031 27 C 19 27 18.969 27 18.938 27 Z M 18.938 30.781 C 18.387 30.859 18 31.371 18.078 31.922 C 18.156 32.473 18.668 32.859 19.219 32.781 L 26.938 32.781 C 27.297 32.785 27.633 32.598 27.816 32.285 C 27.996 31.973 27.996 31.59 27.816 31.277 C 27.633 30.965 27.297 30.777 26.938 30.781 L 19.219 30.781 C 19.156 30.773 19.094 30.773 19.031 30.781 C 19 30.781 18.969 30.781 18.938 30.781 Z M 7.406 31 C 6.856 31.078 6.469 31.59 6.547 32.141 C 6.625 32.691 7.137 33.078 7.688 33 L 14.469 33 C 14.828 33.004 15.164 32.816 15.348 32.504 C 15.527 32.191 15.527 31.809 15.348 31.496 C 15.164 31.184 14.828 30.996 14.469 31 L 7.688 31 C 7.656 31 7.625 31 7.594 31 C 7.563 31 7.531 31 7.5 31 C 7.469 31 7.438 31 7.406 31 Z M 18.938 34.781 C 18.387 34.859 18 35.371 18.078 35.922 C 18.156 36.473 18.668 36.859 19.219 36.781 L 26.938 36.781 C 27.297 36.785 27.633 36.598 27.816 36.285 C 27.996 35.973 27.996 35.59 27.816 35.277 C 27.633 34.965 27.297 34.777 26.938 34.781 L 19.219 34.781 C 19.156 34.773 19.094 34.773 19.031 34.781 C 19 34.781 18.969 34.781 18.938 34.781 Z M 7.406 35 C 6.856 35.078 6.469 35.59 6.547 36.141 C 6.625 36.691 7.137 37.078 7.688 37 L 14.469 37 C 14.828 37.004 15.164 36.816 15.348 36.504 C 15.527 36.191 15.527 35.809 15.348 35.496 C 15.164 35.184 14.828 34.996 14.469 35 L 7.688 35 C 7.656 35 7.625 35 7.594 35 C 7.563 35 7.531 35 7.5 35 C 7.469 35 7.438 35 7.406 35 Z M 18.938 38.531 C 18.387 38.609 18 39.121 18.078 39.672 C 18.156 40.223 18.668 40.609 19.219 40.531 L 26.938 40.531 C 27.297 40.535 27.633 40.348 27.816 40.035 C 27.996 39.723 27.996 39.34 27.816 39.027 C 27.633 38.715 27.297 38.527 26.938 38.531 L 19.219 38.531 C 19.188 38.531 19.156 38.531 19.125 38.531 C 19.094 38.531 19.063 38.531 19.031 38.531 C 19 38.531 18.969 38.531 18.938 38.531 Z M 7.406 39 C 6.856 39.078 6.469 39.59 6.547 40.141 C 6.625 40.691 7.137 41.078 7.688 41 L 14.469 41 C 14.828 41.004 15.164 40.816 15.348 40.504 C 15.527 40.191 15.527 39.809 15.348 39.496 C 15.164 39.184 14.828 38.996 14.469 39 L 7.688 39 C 7.656 39 7.625 39 7.594 39 C 7.563 39 7.531 39 7.5 39 C 7.469 39 7.438 39 7.406 39 Z"
        fill="#000000"/>
</svg>
